# xmcd
#
# Track frame offsets:
#	150
#	18931
#	37550
#	54233
#	72433
#	91076
#	103388
#	121317
#	138738
#	166397
#	188699
#	205057
#	222852
#	240969
#	255383
#	270493
#	285583
#	300790
#	312514
#	330426
#
# Disc length: 4601 seconds
#
# Revision: 0
# Processed by: cddbd v1.5.2PL0 Copyright (c) Steve Scherf et al.
# Submitted via: EasyCDDAExtractor 2010.6.0.0
#
DISCID=0611f714
DTITLE=Various Artist - Magic Of The Seventies  Cd 4
DYEAR=2013
DGENRE=Pop
TTITLE0=Blondie - Heart Of Glass
TTITLE1=Rod Stewart - Reason To Believe
TTITLE2=Peter Tosh and Mick Jagger - (You Gotta Walk And) Don't Look Back
TTITLE3=Marvin Gaye - Let's Get It On
TTITLE4=Leo Sayer - When I Need You
TTITLE5=Derek And The Dominos - Layla
TTITLE6=Don Mclean - Vincent
TTITLE7=Third World - Now That We've Found Love
TTITLE8=The Moody Blues - Isn't Life Strange
TTITLE9=Wizzard - See My Baby Jive
TTITLE10=Robert Palmer - Can We Still Be Friends?
TTITLE11=Barry White - Never, Never Gonna Give You Up
TTITLE12=Mud - The Cat Crept In
TTITLE13=Stealers Wheel - Late Again
TTITLE14=Buggles - Video Killed The Radio Star
TTITLE15=Harry Nilsson - Without You
TTITLE16=Patti Smith Group - Because The Night
TTITLE17=The Three Degrees - When Will I See You Again
TTITLE18=Sweet - The Six Teens
TTITLE19=Isaac Hayes - theme from Shaft
EXTD=
EXTT0=
EXTT1=
EXTT2=
EXTT3=
EXTT4=
EXTT5=
EXTT6=
EXTT7=
EXTT8=
EXTT9=
EXTT10=
EXTT11=
EXTT12=
EXTT13=
EXTT14=
EXTT15=
EXTT16=
EXTT17=
EXTT18=
EXTT19=
PLAYORDER=
